# xmcd
#
# Track frame offsets: 
#        150
#        20812
#        34327
#        45986
#        55261
#        63585
#        73617
#        93922
#        114227
#        126396
#        138293
#        150190
#        169400
#        188611
#        207822
#        222254
#        223060
#        235507
#        247954
#        260123
#        261199
#        261710
#        263361
#        267065
#        276633
#        285611
#        288277
#        300174
#
# Disc length: 4160 seconds
#
# Revision: 0
# Processed by: cddbd v1.5.2PL0 Copyright (c) Steve Scherf et al.
# Submitted via: ExactAudioCopy v0.95b3
#
DISCID=a4103e1c
DTITLE=The Beatles  - The Sgt Pepper Recording Sessions Reconstructed 
DTITLE=Outtakes and Outfakes - D 3
DYEAR=1900
DGENRE=
TTITLE0=A DAY IN THE LIFE     SI onto take 6
TTITLE1=PENNY LANE    Mono mix RM14
TTITLE2=SGT PEPPERS LONELY HEARTS CLUB BAND     Take 9
TTITLE3=SGT PEPPERS LONELY HEARTS CLUB BAND     SI onto take 9
TTITLE4=SGT PEPPERS LONELY HEARTS CLUB BAND     SI onto take 9
TTITLE5=SGT PEPPERS LONELY HEARTS CLUB BAND     take 10 RM1
TTITLE6=A DAY IN THE LIFE    SI onto take 6
TTITLE7=A DAY IN THE LIFE    SI onto take 6
TTITLE8=GOOD MORNING GOOD MORNING       Take 8
TTITLE9=FIXING A HOLE     Take 2
TTITLE10=FIXING A HOLE     SI onto take 2
TTITLE11=FIXING A HOLE     SI onto take 7
TTITLE12=FIXING A HOLE     SI onto take 7
TTITLE13=FIXING A HOLE     SI onto take 7
TTITLE14=FIXING A HOLE     SI onto take 7
TTITLE15=A DAY IN THE LIFE     Edit piece takes 8-11
TTITLE16=ONLY A NORTHERN SONG    Take 3
TTITLE17=ONLY A NORTHERN SONG    SI onto take 12
TTITLE18=GOOD MORNING GOOD MORNING      SI onto take 8
TTITLE19=BEING FOR THE BENEFIT OF MR KITE     rehearsal take
TTITLE20=BEING FOR THE BENEFIT OF MR KITE     studio chat
TTITLE21=BEING FOR THE BENEFIT OF MR KITE     Take 1
TTITLE22=BEING FOR THE BENEFIT OF MR KITE     Take 2
TTITLE23=BEING FOR THE BENEFIT OF MR KITE     Take 7
TTITLE24=BEING FOR THE BENEFIT OF MR KITE     SI onto take 9
TTITLE25=BEING FOR THE BENEFIT OF MR KITE      Sound effects tape
TTITLE26=FIXING A HOLE    SI onto take 3
TTITLE27=FIXING A HOLE    Mono mix edit of 3 and 6
EXTD=
EXTT0=
EXTT1=
EXTT2=
EXTT3=
EXTT4=
EXTT5=
EXTT6=
EXTT7=
EXTT8=
EXTT9=
EXTT10=
EXTT11=
EXTT12=
EXTT13=
EXTT14=
EXTT15=
EXTT16=
EXTT17=
EXTT18=
EXTT19=
EXTT20=
EXTT21=
EXTT22=
EXTT23=
EXTT24=
EXTT25=
EXTT26=
EXTT27=
PLAYORDER=
